<svg width="569.7162353515624px" height="178.397509765625px" xmlns="http://www.w3.org/2000/svg" viewBox="0 0 500 150" style="background: rgb(253, 253, 253);"><defs><linearGradient id="editing-outline-gradient" x1="-0.18199836006249848" x2="1.1819983600624986" y1="-0.23135370161917046" y2="1.2313537016191705"><stop offset="0" stop-color="#85a2b6"></stop><stop offset="1" stop-color="#bbcedd"></stop></linearGradient><filter id="editing-outline" x="-100%" y="-100%" width="300%" height="300%"><feMorphology in="SourceGraphic" operator="dilate" radius="5" result="outline"></feMorphology><feComposite operator="out" in="outline" in2="SourceAlpha"></feComposite></filter></defs><g filter="url(#editing-outline)"><g transform="translate(49.20155942440033, 108.84375)"><path d="M22.40 0L0.60 0L13.30-66L35.30-66L22.40 0ZM79.80 2L79.80 2L79.80 2Q67.70 2 67.70-7.40L67.70-7.40L67.70-7.40Q67.80-10 68.60-14.40L68.60-14.40L70.40-23.60L70.40-23.60Q73.10-36.60 73.10-39.50L73.10-39.50L73.10-39.50Q73.10-45.30 69.70-45.30L69.70-45.30L69.70-45.30Q64-45.30 61.00-30.40L61.00-30.40L55.10 0L35.00 2L45.40-51.10L61.80-53L60.20-43.20L60.20-43.20Q64.90-53 79.30-53L79.30-53L79.30-53Q86.30-53 89.25-50.05L89.25-50.05L89.25-50.05Q92.20-47.10 92.20-40.50L92.20-40.50L92.20-40.50Q92.20-34.30 89-19.80L89-19.80L89-19.80Q87.50-13.30 87.50-10.85L87.50-10.85L87.50-10.85Q87.50-8.40 88.85-7L88.85-7L88.85-7Q90.20-5.60 92.20-5.40L92.20-5.40L92.20-5.40Q91.20-2 87.75 0L87.75 0L87.75 0Q84.30 2 79.80 2ZM101.80-10L101.80-10L101.80-10Q101.80-12.70 103.20-19.50L103.20-19.50L108.50-46.50L102.60-46.50L103-49.50L103-49.50Q115-53.10 126.60-61.90L126.60-61.90L131.40-61.90L129-51L136.80-51L135.90-46.50L128.20-46.50L123.10-19.50L123.10-19.50Q121.80-13.30 121.80-11.20L121.80-11.20L121.80-11.20Q121.80-6.40 126-5.40L126-5.40L126-5.40Q125-2 121.40 0L121.40 0L121.40 0Q117.80 2 112.70 2L112.70 2L112.70 2Q107.60 2 104.70-1.20L104.70-1.20L104.70-1.20Q101.80-4.40 101.80-10ZM167.60-28.10L167.60-28.10L167.60-28.10Q171.20-34.50 171.20-41L171.20-41L171.20-41Q171.20-45.30 168.10-45.30L168.10-45.30L168.10-45.30Q165.70-45.30 163.20-41.20L163.20-41.20L163.20-41.20Q160.60-37.10 159.80-31.80L159.80-31.80L154.60 0L133.90 2L144.10-51L160.60-53L158.80-42.90L158.80-42.90Q163.70-53 174.70-53L174.70-53L174.70-53Q180.50-53 183.65-50L183.65-50L183.65-50Q186.80-47 186.80-40.85L186.80-40.85L186.80-40.85Q186.80-34.70 182.75-30.80L182.75-30.80L182.75-30.80Q178.70-26.90 171.80-26.90L171.80-26.90L171.80-26.90Q168.80-26.90 167.60-28.10ZM192.75-3L192.75-3L192.75-3Q190.40-5.60 189.35-9.70L189.35-9.70L189.35-9.70Q188.30-13.80 188.30-20.50L188.30-20.50L188.30-20.50Q188.30-27.20 190.60-33.30L190.60-33.30L190.60-33.30Q192.90-39.40 197.10-43.80L197.10-43.80L197.10-43.80Q205.70-53 219.90-53L219.90-53L219.90-53Q225-53 228.70-51.30L228.70-51.30L245.80-53L238.40-14L238.40-14Q238.10-12.80 238.10-10.60L238.10-10.60L238.10-10.60Q238.10-8.40 239.45-7L239.45-7L239.45-7Q240.80-5.60 242.80-5.40L242.80-5.40L242.80-5.40Q241.80-2 238.15 0L238.15 0L238.15 0Q234.50 2 230.40 2L230.40 2L230.40 2Q226.30 2 223.55 0.45L223.55 0.45L223.55 0.45Q220.80-1.10 220-3.70L220-3.70L220-3.70Q218.40-1.20 215 0.40L215 0.40L215 0.40Q211.60 2 207.05 2L207.05 2L207.05 2Q202.50 2 198.80 0.80L198.80 0.80L198.80 0.80Q195.10-0.40 192.75-3ZM213.85-43.60L213.85-43.60L213.85-43.60Q212.70-41.80 211.70-38.75L211.70-38.75L211.70-38.75Q210.70-35.70 209.05-27.55L209.05-27.55L209.05-27.55Q207.40-19.40 207.40-13.60L207.40-13.60L207.40-13.60Q207.40-7.80 208.30-6.10L208.30-6.10L208.30-6.10Q209.20-4.40 210.80-4.40L210.80-4.40L210.80-4.40Q214-4.40 216.35-7.45L216.35-7.45L216.35-7.45Q218.70-10.50 219.60-15.90L219.60-15.90L224.90-45.20L224.90-45.20Q222.80-47 220.35-47L220.35-47L220.35-47Q217.90-47 216.45-46.20L216.45-46.20L216.45-46.20Q215-45.40 213.85-43.60ZM293.50 2L293.50 2L293.50 2Q281.40 2 281.40-7.40L281.40-7.40L281.40-7.40Q281.50-10 282.30-14.40L282.30-14.40L284.10-23.60L284.10-23.60Q286.80-36.60 286.80-39.50L286.80-39.50L286.80-39.50Q286.80-45.30 283.40-45.30L283.40-45.30L283.40-45.30Q277.70-45.30 274.70-30.40L274.70-30.40L268.80 0L248.70 2L259.10-51.10L275.50-53L273.90-43.20L273.90-43.20Q278.60-53 293-53L293-53L293-53Q300-53 302.95-50.05L302.95-50.05L302.95-50.05Q305.90-47.10 305.90-40.50L305.90-40.50L305.90-40.50Q305.90-34.30 302.70-19.80L302.70-19.80L302.70-19.80Q301.20-13.30 301.20-10.85L301.20-10.85L301.20-10.85Q301.20-8.40 302.55-7L302.55-7L302.55-7Q303.90-5.60 305.90-5.40L305.90-5.40L305.90-5.40Q304.90-2 301.45 0L301.45 0L301.45 0Q298 2 293.50 2ZM354.40-16.90L354.40-16.90L354.40-16.90Q356.90-15.20 356.90-11.45L356.90-11.45L356.90-11.45Q356.90-7.70 355-5.30L355-5.30L355-5.30Q353.10-2.90 350-1.30L350-1.30L350-1.30Q343.60 2 336.70 2L336.70 2L336.70 2Q329.80 2 325.75 0.50L325.75 0.50L325.75 0.50Q321.70-1 319-3.80L319-3.80L319-3.80Q313.70-9.10 313.70-18.80L313.70-18.80L313.70-18.80Q313.70-33.90 321.90-43.10L321.90-43.10L321.90-43.10Q330.70-53 346-53L346-53L346-53Q355.50-53 360.20-49L360.20-49L360.20-49Q363.70-46 363.70-41.10L363.70-41.10L363.70-41.10Q363.70-23.50 333.30-23.50L333.30-23.50L333.30-23.50Q332.90-20.90 332.90-18.70L332.90-18.70L332.90-18.70Q332.90-14.10 334.95-12.35L334.95-12.35L334.95-12.35Q337-10.60 340.80-10.60L340.80-10.60L340.80-10.60Q344.60-10.60 348.65-12.35L348.65-12.35L348.65-12.35Q352.70-14.10 354.40-16.90ZM334-27.80L334-27.80L334-27.80Q341.10-27.80 345.20-32.20L345.20-32.20L345.20-32.20Q349.30-36.40 349.30-43.10L349.30-43.10L349.30-43.10Q349.30-45.40 348.45-46.65L348.45-46.65L348.45-46.65Q347.60-47.90 345.90-47.90L345.90-47.90L345.90-47.90Q344.20-47.90 342.75-47.25L342.75-47.25L342.75-47.25Q341.30-46.60 339.80-44.40L339.80-44.40L339.80-44.40Q336.10-39.40 334-27.80ZM368.70-10L368.70-10L368.70-10Q368.70-12.70 370.10-19.50L370.10-19.50L375.40-46.50L369.50-46.50L369.90-49.50L369.90-49.50Q381.90-53.10 393.50-61.90L393.50-61.90L398.30-61.90L395.90-51L403.70-51L402.80-46.50L395.10-46.50L390-19.50L390-19.50Q388.70-13.30 388.70-11.20L388.70-11.20L388.70-11.20Q388.70-6.40 392.90-5.40L392.90-5.40L392.90-5.40Q391.90-2 388.30 0L388.30 0L388.30 0Q384.70 2 379.60 2L379.60 2L379.60 2Q374.50 2 371.60-1.20L371.60-1.20L371.60-1.20Q368.70-4.40 368.70-10Z" fill="url(#editing-outline-gradient)"></path></g></g><style>text {
  font-size: 64px;
  font-family: Arial Black;
  dominant-baseline: central;
  text-anchor: middle;
}</style></svg>