<svg width="296.0375732421875px" height="99.1987548828125px" xmlns="http://www.w3.org/2000/svg" viewBox="0 0 500 150" style="background: rgb(255, 255, 255);"><defs><linearGradient id="editing-outline-gradient" x1="-0.41354545764260087" x2="1.4135454576426008" y1="0.09326335692419985" y2="0.9067366430758002"><stop offset="0" stop-color="#85a2b6"></stop><stop offset="1" stop-color="#bbcedd"></stop></linearGradient><filter id="editing-outline" x="-100%" y="-100%" width="300%" height="300%"><feMorphology in="SourceGraphic" operator="dilate" radius="2" result="outline"></feMorphology><feComposite operator="out" in="outline" in2="SourceAlpha"></feComposite></filter></defs><g filter="url(#editing-outline)"><g transform="translate(150.03437346220016, 92.1171875)"><path d="M11.20 0L0.30 0L6.65-33L17.65-33L11.20 0ZM39.90 1L39.90 1L39.90 1Q33.85 1 33.85-3.70L33.85-3.70L33.85-3.70Q33.90-5 34.30-7.20L34.30-7.20L35.20-11.80L35.20-11.80Q36.55-18.30 36.55-19.75L36.55-19.75L36.55-19.75Q36.55-22.65 34.85-22.65L34.85-22.65L34.85-22.65Q32-22.65 30.50-15.20L30.50-15.20L27.55 0L17.50 1L22.70-25.55L30.90-26.50L30.10-21.60L30.10-21.60Q32.45-26.50 39.65-26.50L39.65-26.50L39.65-26.50Q43.15-26.50 44.63-25.03L44.63-25.03L44.63-25.03Q46.10-23.55 46.10-20.25L46.10-20.25L46.10-20.25Q46.10-17.15 44.50-9.90L44.50-9.90L44.50-9.90Q43.75-6.65 43.75-5.43L43.75-5.43L43.75-5.43Q43.75-4.20 44.43-3.50L44.43-3.50L44.43-3.50Q45.10-2.80 46.10-2.70L46.10-2.70L46.10-2.70Q45.60-1 43.88 0L43.88 0L43.88 0Q42.15 1 39.90 1ZM50.90-5L50.90-5L50.90-5Q50.90-6.35 51.60-9.75L51.60-9.75L54.25-23.25L51.30-23.25L51.50-24.75L51.50-24.75Q57.50-26.55 63.30-30.95L63.30-30.95L65.70-30.95L64.50-25.50L68.40-25.50L67.95-23.25L64.10-23.25L61.55-9.75L61.55-9.75Q60.90-6.65 60.90-5.60L60.90-5.60L60.90-5.60Q60.90-3.20 63-2.70L63-2.70L63-2.70Q62.50-1 60.70 0L60.70 0L60.70 0Q58.90 1 56.35 1L56.35 1L56.35 1Q53.80 1 52.35-0.60L52.35-0.60L52.35-0.60Q50.90-2.20 50.90-5ZM83.80-14.05L83.80-14.05L83.80-14.05Q85.60-17.25 85.60-20.50L85.60-20.50L85.60-20.50Q85.60-22.65 84.05-22.65L84.05-22.65L84.05-22.65Q82.85-22.65 81.60-20.60L81.60-20.60L81.60-20.60Q80.30-18.55 79.90-15.90L79.90-15.90L77.30 0L66.95 1L72.05-25.50L80.30-26.50L79.40-21.45L79.40-21.45Q81.85-26.50 87.35-26.50L87.35-26.50L87.35-26.50Q90.25-26.50 91.83-25L91.83-25L91.83-25Q93.40-23.50 93.40-20.43L93.40-20.43L93.40-20.43Q93.40-17.35 91.38-15.40L91.38-15.40L91.38-15.40Q89.35-13.45 85.90-13.45L85.90-13.45L85.90-13.45Q84.40-13.45 83.80-14.05ZM96.38-1.50L96.38-1.50L96.38-1.50Q95.20-2.80 94.67-4.85L94.67-4.85L94.67-4.85Q94.15-6.90 94.15-10.25L94.15-10.25L94.15-10.25Q94.15-13.60 95.30-16.65L95.30-16.65L95.30-16.65Q96.45-19.70 98.55-21.90L98.55-21.90L98.55-21.90Q102.85-26.50 109.95-26.50L109.95-26.50L109.95-26.50Q112.50-26.50 114.35-25.65L114.35-25.65L122.90-26.50L119.20-7L119.20-7Q119.05-6.40 119.05-5.30L119.05-5.30L119.05-5.30Q119.05-4.20 119.72-3.50L119.72-3.50L119.72-3.50Q120.40-2.80 121.40-2.70L121.40-2.70L121.40-2.70Q120.90-1 119.07 0L119.07 0L119.07 0Q117.25 1 115.20 1L115.20 1L115.20 1Q113.15 1 111.77 0.23L111.77 0.23L111.77 0.23Q110.40-0.55 110-1.85L110-1.85L110-1.85Q109.20-0.60 107.50 0.20L107.50 0.20L107.50 0.20Q105.80 1 103.52 1L103.52 1L103.52 1Q101.25 1 99.40 0.40L99.40 0.40L99.40 0.40Q97.55-0.20 96.38-1.50ZM106.92-21.80L106.92-21.80L106.92-21.80Q106.35-20.90 105.85-19.38L105.85-19.38L105.85-19.38Q105.35-17.85 104.52-13.78L104.52-13.78L104.52-13.78Q103.70-9.70 103.70-6.80L103.70-6.80L103.70-6.80Q103.70-3.90 104.15-3.05L104.15-3.05L104.15-3.05Q104.60-2.20 105.40-2.20L105.40-2.20L105.40-2.20Q107-2.20 108.17-3.73L108.17-3.73L108.17-3.73Q109.35-5.25 109.80-7.95L109.80-7.95L112.45-22.60L112.45-22.60Q111.40-23.50 110.17-23.50L110.17-23.50L110.17-23.50Q108.95-23.50 108.22-23.10L108.22-23.10L108.22-23.10Q107.50-22.70 106.92-21.80ZM146.75 1L146.75 1L146.75 1Q140.70 1 140.70-3.70L140.70-3.70L140.70-3.70Q140.75-5 141.15-7.20L141.15-7.20L142.05-11.80L142.05-11.80Q143.40-18.30 143.40-19.75L143.40-19.75L143.40-19.75Q143.40-22.65 141.70-22.65L141.70-22.65L141.70-22.65Q138.85-22.65 137.35-15.20L137.35-15.20L134.40 0L124.35 1L129.55-25.55L137.75-26.50L136.95-21.60L136.95-21.60Q139.30-26.50 146.50-26.50L146.50-26.50L146.50-26.50Q150-26.50 151.47-25.03L151.47-25.03L151.47-25.03Q152.95-23.55 152.95-20.25L152.95-20.25L152.95-20.25Q152.95-17.15 151.35-9.90L151.35-9.90L151.35-9.90Q150.60-6.65 150.60-5.43L150.60-5.43L150.60-5.43Q150.60-4.20 151.28-3.50L151.28-3.50L151.28-3.50Q151.95-2.80 152.95-2.70L152.95-2.70L152.95-2.70Q152.45-1 150.72 0L150.72 0L150.72 0Q149 1 146.75 1ZM177.20-8.45L177.20-8.45L177.20-8.45Q178.45-7.60 178.45-5.73L178.45-5.73L178.45-5.73Q178.45-3.85 177.50-2.65L177.50-2.65L177.50-2.65Q176.55-1.45 175-0.65L175-0.65L175-0.65Q171.80 1 168.35 1L168.35 1L168.35 1Q164.90 1 162.88 0.25L162.88 0.25L162.88 0.25Q160.85-0.50 159.50-1.90L159.50-1.90L159.50-1.90Q156.85-4.55 156.85-9.40L156.85-9.40L156.85-9.40Q156.85-16.95 160.95-21.55L160.95-21.55L160.95-21.55Q165.35-26.50 173-26.50L173-26.50L173-26.50Q177.75-26.50 180.10-24.50L180.10-24.50L180.10-24.50Q181.85-23 181.85-20.55L181.85-20.55L181.85-20.55Q181.85-11.75 166.65-11.75L166.65-11.75L166.65-11.75Q166.45-10.45 166.45-9.35L166.45-9.35L166.45-9.35Q166.45-7.05 167.47-6.18L167.47-6.18L167.47-6.18Q168.50-5.30 170.40-5.30L170.40-5.30L170.40-5.30Q172.30-5.30 174.32-6.18L174.32-6.18L174.32-6.18Q176.35-7.05 177.20-8.45ZM167-13.90L167-13.90L167-13.90Q170.55-13.90 172.60-16.10L172.60-16.10L172.60-16.10Q174.65-18.20 174.65-21.55L174.65-21.55L174.65-21.55Q174.65-22.70 174.22-23.33L174.22-23.33L174.22-23.33Q173.80-23.95 172.95-23.95L172.95-23.95L172.95-23.95Q172.10-23.95 171.38-23.63L171.38-23.63L171.38-23.63Q170.65-23.30 169.90-22.20L169.90-22.20L169.90-22.20Q168.05-19.70 167-13.90ZM184.35-5L184.35-5L184.35-5Q184.35-6.35 185.05-9.75L185.05-9.75L187.70-23.25L184.75-23.25L184.95-24.75L184.95-24.75Q190.95-26.55 196.75-30.95L196.75-30.95L199.15-30.95L197.95-25.50L201.85-25.50L201.40-23.25L197.55-23.25L195-9.75L195-9.75Q194.35-6.65 194.35-5.60L194.35-5.60L194.35-5.60Q194.35-3.20 196.45-2.70L196.45-2.70L196.45-2.70Q195.95-1 194.15 0L194.15 0L194.15 0Q192.35 1 189.80 1L189.80 1L189.80 1Q187.25 1 185.80-0.60L185.80-0.60L185.80-0.60Q184.35-2.20 184.35-5Z" fill="url(#editing-outline-gradient)"></path></g></g><style>text {
  font-size: 64px;
  font-family: Arial Black;
  dominant-baseline: central;
  text-anchor: middle;
}</style></svg>